<svg id="flag" xmlns="http://www.w3.org/2000/svg" width="14.484" height="16.284" viewBox="0 0 14.484 16.284">
  <path id="Path_181" data-name="Path 181" d="M.574,168.9a.427.427,0,0,0-.426.426v8.238a.426.426,0,1,0,.852,0v-8.238a.427.427,0,0,0-.426-.426Zm0,0" transform="translate(-0.148 -161.704)" fill="#1ae5be"/>
  <path id="Path_182" data-name="Path 182" d="M10.148,10h1.7v7.194h-1.7Zm0,0" transform="translate(-9.722 -9.574)" fill="#d4e1f4"/>
  <path id="Path_183" data-name="Path 183" d="M118.75,178.9h1.7v1.538h-1.7Zm0,0" transform="translate(-113.698 -171.278)" fill="#d4e1f4"/>
  <path id="Path_184" data-name="Path 184" d="M14.576,2.1a.428.428,0,0,0-.371-.213H8.71V.426A.427.427,0,0,0,8.284,0H.575A.427.427,0,0,0,.149.426V7.62a.427.427,0,0,0,.426.426h4.2V9.332a.427.427,0,0,0,.426.426h9a.428.428,0,0,0,.371-.213.424.424,0,0,0,0-.426l-1.93-3.3,1.93-3.3a.434.434,0,0,0,0-.426ZM1,7.194V.852H7.858V7.194ZM11.781,5.605a.431.431,0,0,0,0,.43L13.46,8.907H5.627V8.046H8.284A.427.427,0,0,0,8.71,7.62V2.735h4.754Zm0,0" transform="translate(-0.149)" fill="#0635c9"/>
</svg>
